<?xml version="1.0" encoding="UTF-8" standalone="no"?>
<svg
   xmlns:dc="http://purl.org/dc/elements/1.1/"
   xmlns:cc="http://creativecommons.org/ns#"
   xmlns:rdf="http://www.w3.org/1999/02/22-rdf-syntax-ns#"
   xmlns:svg="http://www.w3.org/2000/svg"
   xmlns="http://www.w3.org/2000/svg"
   xmlns:sodipodi="http://sodipodi.sourceforge.net/DTD/sodipodi-0.dtd"
   xmlns:inkscape="http://www.inkscape.org/namespaces/inkscape"
   width="25.493385mm"
   height="25.493385mm"
   viewBox="0 0 25.493385 25.493385"
   version="1.1"
   id="svg8"
   sodipodi:docname="gear-8.svg"
   inkscape:version="1.0.2 (e86c870879, 2021-01-15, custom)">
  <sodipodi:namedview
     pagecolor="#ffffff"
     bordercolor="#666666"
     borderopacity="1"
     objecttolerance="10"
     gridtolerance="10"
     guidetolerance="10"
     inkscape:pageopacity="0"
     inkscape:pageshadow="2"
     inkscape:window-width="703"
     inkscape:window-height="480"
     id="namedview9"
     showgrid="false"
     inkscape:zoom="1.8972016"
     inkscape:cx="106.40655"
     inkscape:cy="14.086291"
     inkscape:window-x="0"
     inkscape:window-y="0"
     inkscape:window-maximized="0"
     inkscape:current-layer="svg8"
     inkscape:document-rotation="0" />
  <defs
     id="defs2" />
  <metadata
     id="metadata5">
    <rdf:RDF>
      <cc:Work
         rdf:about="">
        <dc:format>image/svg+xml</dc:format>
        <dc:type
           rdf:resource="http://purl.org/dc/dcmitype/StillImage" />
        <dc:title />
      </cc:Work>
    </rdf:RDF>
  </metadata>
  <g
     inkscape:label="Rendered Gears"
     transform="translate(12.746692,12.746692)"
     id="g18"
     style="fill:#808080">
    <path
       style="fill:#808080;stroke:#000000;stroke-width:0.264583"
       d="m 7.41125,-1.58937 1.87448,-0.40199 0.62642,0.01971 2.70225,1.28822 V 0.68343 L 9.91215,1.97165 9.28573,1.99136 7.41125,1.58937 6.3644,4.11669 7.9741,5.1579 8.40311,5.61478 9.403,8.43648 8.43648,9.403 5.61478,8.40311 5.1579,7.9741 4.11669,6.3644 1.58937,7.41125 1.99136,9.28573 1.97165,9.91215 0.68343,12.6144 H -0.68343 L -1.97165,9.91215 -1.99136,9.28573 -1.58937,7.41125 -4.11669,6.3644 -5.1579,7.9741 -5.61478,8.40311 -8.43648,9.403 -9.403,8.43648 -8.40311,5.61478 -7.9741,5.1579 -6.3644,4.11669 -7.41125,1.58937 -9.28573,1.99136 -9.91215,1.97165 -12.6144,0.68343 v -1.36686 l 2.70225,-1.28822 0.62642,-0.01971 1.87448,0.40199 1.04685,-2.52732 -1.6097,-1.04121 -0.42901,-0.45688 -0.99989,-2.8217 0.96652,-0.96652 2.8217,0.99989 0.45688,0.42901 1.04121,1.6097 2.52732,-1.04685 -0.40199,-1.87448 0.01971,-0.62642 1.28822,-2.70225 H 0.68343 L 1.97165,-9.91215 1.99136,-9.28573 1.58937,-7.41125 4.11669,-6.3644 5.1579,-7.9741 5.61478,-8.40311 8.43648,-9.403 9.403,-8.43648 8.40311,-5.61478 7.9741,-5.1579 6.3644,-4.11669 Z"
       id="path14" />
    <circle
       style="fill:#808080;stroke:#000000;stroke-width:0.264583"
       id="path16"
       cx="0"
       cy="0"
       r="1.3229166" />
  </g>
</svg>
