<?xml version="1.0" encoding="UTF-8" standalone="no"?>
<svg
   xmlns:dc="http://purl.org/dc/elements/1.1/"
   xmlns:cc="http://creativecommons.org/ns#"
   xmlns:rdf="http://www.w3.org/1999/02/22-rdf-syntax-ns#"
   xmlns:svg="http://www.w3.org/2000/svg"
   xmlns="http://www.w3.org/2000/svg"
   xmlns:sodipodi="http://sodipodi.sourceforge.net/DTD/sodipodi-0.dtd"
   xmlns:inkscape="http://www.inkscape.org/namespaces/inkscape"
   width="34.959038mm"
   height="34.959038mm"
   viewBox="0 0 34.959038 34.959038"
   version="1.1"
   id="svg8"
   sodipodi:docname="gear-12.svg"
   inkscape:version="1.0.2 (e86c870879, 2021-01-15, custom)">
  <sodipodi:namedview
     pagecolor="#ffffff"
     bordercolor="#666666"
     borderopacity="1"
     objecttolerance="10"
     gridtolerance="10"
     guidetolerance="10"
     inkscape:pageopacity="0"
     inkscape:pageshadow="2"
     inkscape:window-width="1280"
     inkscape:window-height="658"
     id="namedview9"
     showgrid="true"
     inkscape:zoom="7.3338338"
     inkscape:cx="71.197757"
     inkscape:cy="10.324438"
     inkscape:window-x="-6"
     inkscape:window-y="-6"
     inkscape:window-maximized="1"
     inkscape:current-layer="g17"
     inkscape:document-rotation="0">
    <inkscape:grid
       type="xygrid"
       id="grid9"
       originx="12.939453"
       originy="-6.9722868" />
  </sodipodi:namedview>
  <defs
     id="defs2" />
  <metadata
     id="metadata5">
    <rdf:RDF>
      <cc:Work
         rdf:about="">
        <dc:format>image/svg+xml</dc:format>
        <dc:type
           rdf:resource="http://purl.org/dc/dcmitype/StillImage" />
        <dc:title />
      </cc:Work>
    </rdf:RDF>
  </metadata>
  <g
     inkscape:label="Rendered Gears"
     transform="rotate(90,9.9558701,14.67729)"
     id="g17"
     style="fill:#808080">
    <g
       inkscape:label="Rendered Gears"
       transform="rotate(14.940823,-20.89844,52.224636)"
       id="g18"
       style="fill:#808080">
      <path
         style="fill:#808080;stroke:#000000;stroke-width:0.264583"
         d="m 12.4989,-1.83541 1.5952,-0.23426 0.9357,0.09096 2.6389,1.19459 v 1.56824 l -2.6389,1.19459 -0.9357,0.09096 -1.5952,-0.23426 -0.7568,2.82452 1.4986,0.59475 0.7649,0.54661 1.688,2.35399 -0.7841,1.35814 -2.8827,-0.2849 -0.8558,-0.38907 -1.26436,-1.0005 -2.06769,2.06769 1.0005,1.26436 0.38907,0.8558 0.2849,2.8827 -1.35814,0.7841 -2.35399,-1.688 -0.54661,-0.7649 -0.59475,-1.4986 -2.82452,0.7568 0.23426,1.5952 -0.09096,0.9357 -1.19459,2.6389 h -1.56824 l -1.19459,-2.6389 -0.09096,-0.9357 0.23426,-1.5952 -2.82452,-0.7568 -0.59475,1.4986 -0.54661,0.7649 -2.35399,1.688 -1.35814,-0.7841 0.2849,-2.8827 0.38907,-0.8558 1.0005,-1.26436 -2.06769,-2.06769 -1.26436,1.0005 -0.8558,0.38907 -2.8827,0.2849 -0.7841,-1.35814 1.688,-2.35399 0.7649,-0.54661 1.4986,-0.59475 -0.7568,-2.82452 -1.5952,0.23426 -0.9357,-0.09096 -2.6389,-1.19459 v -1.56824 l 2.6389,-1.19459 0.9357,-0.09096 1.5952,0.23426 0.7568,-2.82452 -1.4986,-0.59475 -0.7649,-0.54661 -1.688,-2.35399 0.7841,-1.35814 2.8827,0.2849 0.8558,0.38907 1.26436,1.0005 2.06769,-2.06769 -1.0005,-1.26436 -0.38907,-0.8558 -0.2849,-2.8827 1.35814,-0.7841 2.35399,1.688 0.54661,0.7649 0.59475,1.4986 2.82452,-0.7568 -0.23426,-1.5952 0.09096,-0.9357 1.19459,-2.6389 h 1.56824 l 1.19459,2.6389 0.09096,0.9357 -0.23426,1.5952 2.82452,0.7568 0.59475,-1.4986 0.54661,-0.7649 2.35399,-1.688 1.35814,0.7841 -0.2849,2.8827 -0.38907,0.8558 -1.0005,1.26436 2.06769,2.06769 1.26436,-1.0005 0.8558,-0.38907 2.8827,-0.2849 0.7841,1.35814 -1.688,2.35399 -0.7649,0.54661 -1.4986,0.59475 z"
         id="path14" />
      <circle
         style="fill:#808080;stroke:#000000;stroke-width:0.264583"
         id="path16"
         cx="0"
         cy="0"
         r="1.3229166" />
    </g>
  </g>
</svg>
