<?xml version="1.0" encoding="UTF-8" standalone="no"?>
<svg
   xmlns:dc="http://purl.org/dc/elements/1.1/"
   xmlns:cc="http://creativecommons.org/ns#"
   xmlns:rdf="http://www.w3.org/1999/02/22-rdf-syntax-ns#"
   xmlns:svg="http://www.w3.org/2000/svg"
   xmlns="http://www.w3.org/2000/svg"
   xmlns:sodipodi="http://sodipodi.sourceforge.net/DTD/sodipodi-0.dtd"
   xmlns:inkscape="http://www.inkscape.org/namespaces/inkscape"
   width="20.442383mm"
   height="18.379469mm"
   viewBox="0 0 20.442383 18.37947"
   version="1.1"
   id="svg8"
   sodipodi:docname="gear-6.svg"
   inkscape:version="1.0.2 (e86c870879, 2021-01-15, custom)">
  <sodipodi:namedview
     pagecolor="#ffffff"
     bordercolor="#666666"
     borderopacity="1"
     objecttolerance="10"
     gridtolerance="10"
     guidetolerance="10"
     inkscape:pageopacity="0"
     inkscape:pageshadow="2"
     inkscape:window-width="1280"
     inkscape:window-height="658"
     id="namedview8"
     showgrid="false"
     inkscape:zoom="0.30537109"
     inkscape:cx="-591.7493"
     inkscape:cy="34.732875"
     inkscape:window-x="-6"
     inkscape:window-y="-6"
     inkscape:window-maximized="1"
     inkscape:current-layer="svg8"
     inkscape:document-rotation="0" />
  <defs
     id="defs2" />
  <metadata
     id="metadata5">
    <rdf:RDF>
      <cc:Work
         rdf:about="">
        <dc:format>image/svg+xml</dc:format>
        <dc:type
           rdf:resource="http://purl.org/dc/dcmitype/StillImage" />
        <dc:title />
      </cc:Work>
    </rdf:RDF>
  </metadata>
  <g
     inkscape:label="Rendered Gears"
     transform="translate(10.221192,9.1897352)"
     id="g16"
     style="fill:#4d4d4d">
    <path
       style="fill:#4d4d4d;stroke:#000000;stroke-width:0.264583"
       d="M 4.86095,-1.38046 6.8517,-1.94581 7.32148,-1.96178 10.0889,-0.59371 V 0.59371 L 7.32148,1.96178 6.8517,1.94581 4.86095,1.38046 3.62599,3.51948 5.11097,4.96084 5.3597,5.3597 5.55861,8.44038 4.53028,9.03408 1.96178,7.32148 1.74073,6.90665 1.23497,4.89994 H -1.23497 L -1.74073,6.90665 -1.96178,7.32148 -4.53028,9.03408 -5.55861,8.44038 -5.3597,5.3597 -5.11097,4.96084 -3.62599,3.51948 -4.86095,1.38046 -6.8517,1.94581 -7.32148,1.96178 -10.0889,0.59371 v -1.18742 l 2.76742,-1.36807 0.46978,0.01597 1.99075,0.56535 1.23496,-2.13902 -1.48498,-1.44136 -0.24873,-0.39886 -0.19891,-3.08068 1.02833,-0.5937 2.5685,1.7126 0.22105,0.41483 0.50576,2.00671 h 2.46994 l 0.50576,-2.00671 0.22105,-0.41483 2.5685,-1.7126 1.02833,0.5937 -0.19891,3.08068 -0.24873,0.39886 -1.48498,1.44136 z"
       id="path12" />
    <circle
       style="fill:#4d4d4d;stroke:#000000;stroke-width:0.264583"
       id="path14"
       cx="0"
       cy="0"
       r="1.3229166" />
  </g>
</svg>
