<?xml version="1.0" encoding="UTF-8" standalone="no"?>
<svg
   xmlns:dc="http://purl.org/dc/elements/1.1/"
   xmlns:cc="http://creativecommons.org/ns#"
   xmlns:rdf="http://www.w3.org/1999/02/22-rdf-syntax-ns#"
   xmlns:svg="http://www.w3.org/2000/svg"
   xmlns="http://www.w3.org/2000/svg"
   xmlns:sodipodi="http://sodipodi.sourceforge.net/DTD/sodipodi-0.dtd"
   xmlns:inkscape="http://www.inkscape.org/namespaces/inkscape"
   width="65.930984mm"
   height="65.930984mm"
   viewBox="0 0 65.930985 65.930983"
   version="1.1"
   id="svg40"
   sodipodi:docname="gear-24.svg"
   inkscape:version="1.0.2 (e86c870879, 2021-01-15, custom)">
  <sodipodi:namedview
     pagecolor="#ffffff"
     bordercolor="#666666"
     borderopacity="1"
     objecttolerance="10"
     gridtolerance="10"
     guidetolerance="10"
     inkscape:pageopacity="0"
     inkscape:pageshadow="2"
     inkscape:window-width="1280"
     inkscape:window-height="658"
     id="namedview9"
     showgrid="false"
     inkscape:zoom="0.21607648"
     inkscape:cx="124.5938"
     inkscape:cy="124.59386"
     inkscape:window-x="-6"
     inkscape:window-y="-6"
     inkscape:window-maximized="1"
     inkscape:current-layer="svg40"
     inkscape:document-rotation="0" />
  <defs
     id="defs34" />
  <metadata
     id="metadata37">
    <rdf:RDF>
      <cc:Work
         rdf:about="">
        <dc:format>image/svg+xml</dc:format>
        <dc:type
           rdf:resource="http://purl.org/dc/dcmitype/StillImage" />
        <dc:title />
      </cc:Work>
    </rdf:RDF>
  </metadata>
  <g
     inkscape:label="Rendered Gears"
     transform="translate(32.965492,32.965492)"
     id="g31"
     style="fill:#808080">
    <path
       style="fill:#808080;stroke:#000000;stroke-width:0.264583"
       d="m 27.7028,-2.23084 0.6958,-0.05603 1.8555,0.30391 2.5791,1.07912 v 1.80768 l -2.5791,1.07912 -1.8555,0.30391 -0.6958,-0.05603 -0.3666,2.78434 0.6866,0.12597 1.7137,0.7738 2.2118,1.70986 -0.4678,1.74608 -2.7705,0.37484 -1.8709,-0.18667 -0.6577,-0.23424 -1.0747,2.59458 0.6307,0.2994 1.4549,1.191 1.694,2.224 -0.9039,1.5655 -2.7731,-0.355 -1.7588,-0.6645 -0.5746,-0.3965 -1.7096,2.2281 0.5316,0.4524 1.0971,1.5269 1.0607,2.5867 -1.2783,1.2783 -2.5867,-1.0607 -1.5269,-1.0971 -0.4524,-0.5316 -2.2281,1.7096 0.3965,0.5746 0.6645,1.7588 0.355,2.7731 -1.5655,0.9039 -2.224,-1.694 -1.191,-1.4549 -0.2994,-0.6307 -2.59458,1.0747 0.23424,0.6577 0.18667,1.8709 -0.37484,2.7705 -1.74608,0.4678 -1.70986,-2.2118 -0.7738,-1.7137 -0.12597,-0.6866 -2.78434,0.3666 0.05603,0.6958 -0.30391,1.8555 -1.07912,2.5791 h -1.80768 l -1.07912,-2.5791 -0.30391,-1.8555 0.05603,-0.6958 -2.78434,-0.3666 -0.12597,0.6866 -0.7738,1.7137 -1.70986,2.2118 -1.74608,-0.4678 -0.37484,-2.7705 0.18667,-1.8709 0.23424,-0.6577 -2.59458,-1.0747 -0.2994,0.6307 -1.191,1.4549 -2.224,1.694 -1.5655,-0.9039 0.355,-2.7731 0.6645,-1.7588 0.3965,-0.5746 -2.2281,-1.7096 -0.4524,0.5316 -1.5269,1.0971 -2.5867,1.0607 -1.2783,-1.2783 1.0607,-2.5867 1.0971,-1.5269 0.5316,-0.4524 -1.7096,-2.2281 -0.5746,0.3965 -1.7588,0.6645 -2.7731,0.355 -0.9039,-1.5655 1.694,-2.224 1.4549,-1.191 0.6307,-0.2994 -1.0747,-2.59458 -0.6577,0.23424 -1.8709,0.18667 -2.7705,-0.37484 -0.4678,-1.74608 2.2118,-1.70986 1.7137,-0.7738 0.6866,-0.12597 -0.3666,-2.78434 -0.6958,0.05603 -1.8555,-0.30391 -2.5791,-1.07912 v -1.80768 l 2.5791,-1.07912 1.8555,-0.30391 0.6958,0.05603 0.3666,-2.78434 -0.6866,-0.12597 -1.7137,-0.7738 -2.2118,-1.70986 0.4678,-1.74608 2.7705,-0.37484 1.8709,0.18667 0.6577,0.23424 1.0747,-2.59458 -0.6307,-0.2994 -1.4549,-1.191 -1.694,-2.224 0.9039,-1.5655 2.7731,0.355 1.7588,0.6645 0.5746,0.3965 1.7096,-2.2281 -0.5316,-0.4524 -1.0971,-1.5269 -1.0607,-2.5867 1.2783,-1.2783 2.5867,1.0607 1.5269,1.0971 0.4524,0.5316 2.2281,-1.7096 -0.3965,-0.5746 -0.6645,-1.7588 -0.355,-2.7731 1.5655,-0.9039 2.224,1.694 1.191,1.4549 0.2994,0.6307 2.59458,-1.0747 -0.23424,-0.6577 -0.18667,-1.8709 0.37484,-2.7705 1.74608,-0.4678 1.70986,2.2118 0.7738,1.7137 0.12597,0.6866 2.78434,-0.3666 -0.05603,-0.6958 0.30391,-1.8555 1.07912,-2.5791 h 1.80768 l 1.07912,2.5791 0.30391,1.8555 -0.05603,0.6958 2.78434,0.3666 0.12597,-0.6866 0.7738,-1.7137 1.70986,-2.2118 1.74608,0.4678 0.37484,2.7705 -0.18667,1.8709 -0.23424,0.6577 2.59458,1.0747 0.2994,-0.6307 1.191,-1.4549 2.224,-1.694 1.5655,0.9039 -0.355,2.7731 -0.6645,1.7588 -0.3965,0.5746 2.2281,1.7096 0.4524,-0.5316 1.5269,-1.0971 2.5867,-1.0607 1.2783,1.2783 -1.0607,2.5867 -1.0971,1.5269 -0.5316,0.4524 1.7096,2.2281 0.5746,-0.3965 1.7588,-0.6645 2.7731,-0.355 0.9039,1.5655 -1.694,2.224 -1.4549,1.191 -0.6307,0.2994 1.0747,2.59458 0.6577,-0.23424 1.8709,-0.18667 2.7705,0.37484 0.4678,1.74608 -2.2118,1.70986 -1.7137,0.7738 -0.6866,0.12597 z"
       id="path27" />
    <circle
       style="fill:#808080;stroke:#000000;stroke-width:0.264583"
       id="path29"
       cx="0"
       cy="0"
       r="1.3229166" />
  </g>
</svg>
