<?xml version="1.0" encoding="UTF-8" standalone="no"?>
<svg
   xmlns:dc="http://purl.org/dc/elements/1.1/"
   xmlns:cc="http://creativecommons.org/ns#"
   xmlns:rdf="http://www.w3.org/1999/02/22-rdf-syntax-ns#"
   xmlns:svg="http://www.w3.org/2000/svg"
   xmlns="http://www.w3.org/2000/svg"
   xmlns:sodipodi="http://sodipodi.sourceforge.net/DTD/sodipodi-0.dtd"
   xmlns:inkscape="http://www.inkscape.org/namespaces/inkscape"
   width="17.639961mm"
   height="11.997mm"
   version="1.1"
   viewBox="0 0 17.639961 11.997"
   id="svg41"
   sodipodi:docname="svg-arduino-pushbutton-image3.svg"
   inkscape:version="0.92.3 (2405546, 2018-03-11)">
  <metadata
     id="metadata45">
    <rdf:RDF>
      <cc:Work
         rdf:about="">
        <dc:format>image/svg+xml</dc:format>
        <dc:type
           rdf:resource="http://purl.org/dc/dcmitype/StillImage" />
        <dc:title></dc:title>
      </cc:Work>
    </rdf:RDF>
  </metadata>
  <sodipodi:namedview
     pagecolor="#ffffff"
     bordercolor="#666666"
     borderopacity="1"
     objecttolerance="10"
     gridtolerance="10"
     guidetolerance="10"
     inkscape:pageopacity="0"
     inkscape:pageshadow="2"
     inkscape:window-width="960"
     inkscape:window-height="1137"
     id="namedview43"
     showgrid="false"
     inkscape:zoom="5.2034722"
     inkscape:cx="30.028781"
     inkscape:cy="19.840158"
     inkscape:window-x="-8"
     inkscape:window-y="-8"
     inkscape:window-maximized="0"
     inkscape:current-layer="g39"
     fit-margin-top="0"
     fit-margin-left="0"
     fit-margin-right="0"
     fit-margin-bottom="0" />
  <defs
     id="defs11">
    <linearGradient
       id="a"
       x1="61.903999"
       x2="133.7"
       y1="70.549004"
       y2="142.84"
       gradientTransform="matrix(0.10523,0,0,0.10523,-4.3122,-5.2194)"
       gradientUnits="userSpaceOnUse">
      <stop
         stop-color="#ff2a2a"
         offset="0"
         id="stop2" />
      <stop
         stop-color="#c62020"
         offset=".5004"
         id="stop4" />
      <stop
         stop-color="#9b1616"
         offset=".74611"
         id="stop6" />
      <stop
         offset="1"
         id="stop8" />
    </linearGradient>
  </defs>
  <g
     id="g39"
     transform="translate(2.81988,-0.001709)">
    <rect
       x="0.0034237001"
       y="0.001709"
       width="11.997"
       height="11.997"
       rx="0.42093"
       ry="0.42093"
       id="rect13"
       style="fill:#464646" />
    <rect
       x="0.69687003"
       y="0.73681998"
       width="10.523"
       height="10.523"
       rx="0.21047001"
       ry="0.21047001"
       id="rect15"
       style="fill:#eaeaea" />
    <circle
       cx="5.9724998"
       cy="6.0015998"
       r="3.8267"
       id="circle17"
       style="fill:#a70000;fill-opacity:1;stroke:none;stroke-opacity:0.47320999" />
    <circle
       cx="1.7733999"
       cy="1.7916"
       r="0.35301"
       id="circle19"
       style="fill:#1b1b1b" />
    <circle
       cx="10.161"
       cy="1.7941"
       r="0.35301"
       id="circle21"
       style="fill:#1b1b1b" />
    <circle
       cx="10.164"
       cy="10.197"
       r="0.35301"
       id="circle25"
       style="fill:#1b1b1b" />
    <circle
       cx="1.767"
       cy="10.195"
       r="0.35301"
       id="circle27"
       style="fill:#1b1b1b" />
    <g
       id="g35"
       style="fill:#eaeaea">
      <path
         d="m -0.3538,1.4672 c -0.058299,0 -0.10523,0.0469 -0.10523,0.10522 V 1.9594 h -2.1504 c -0.1166,0 -0.21045,0.0938 -0.21045,0.21045 v 0.50721 c 0,0.1166 0.093855,0.21045 0.21045,0.21045 h 2.1504 v 0.40101 c 0,0.0583 0.046928,0.10528 0.10523,0.10528 H 0.00343 V 1.4672 Z"
         id="path23"
         inkscape:connector-curvature="0"
         style="fill:#eaeaea" />
      <path
         d="m -0.35376,8.6067 c -0.058299,0 -0.10523,0.0469 -0.10523,0.10523 V 9.0989 h -2.1504 c -0.1166,0 -0.21045,0.0939 -0.21045,0.21045 v 0.50721 c 0,0.1166 0.093855,0.21046 0.21045,0.21046 h 2.1504 v 0.401 c 0,0.0583 0.046928,0.10528 0.10523,0.10528 H 0.00347 V 8.6067 Z"
         id="path29"
         inkscape:connector-curvature="0" />
      <path
         d="m 12.354,1.4672 c 0.0583,0 0.10522,0.0469 0.10523,0.10522 V 1.9594 h 2.1504 c 0.1166,0 0.21045,0.0938 0.21045,0.21045 v 0.50721 c 0,0.1166 -0.09385,0.21045 -0.21045,0.21045 h -2.1504 v 0.40101 c 0,0.0583 -0.04693,0.10528 -0.10523,0.10528 H 11.99677 V 1.4672 Z"
         id="path31"
         inkscape:connector-curvature="0" />
      <path
         d="m 12.354,8.6067 c 0.0583,0 0.10523,0.0469 0.10523,0.10522 V 9.0989 h 2.1504 c 0.1166,0 0.21045,0.0938 0.21045,0.21045 v 0.50721 c 0,0.1166 -0.09386,0.21045 -0.21045,0.21045 h -2.1504 v 0.40101 c 0,0.0583 -0.04693,0.10528 -0.10523,0.10528 H 11.99677 V 8.6067 Z"
         id="path33"
         inkscape:connector-curvature="0" />
    </g>
    <circle
       cx="5.9825001"
       cy="6.0116"
       r="2.9019001"
       id="circle37"
       style="fill:#ff2a2a;stroke:#2f2f2f;stroke-width:0.076779;stroke-opacity:0.47320999" />
  </g>
</svg>
